<?xml version="1.0" standalone="no"?>
<!DOCTYPE svg PUBLIC "-//W3C//DTD SVG 20010904//EN"
 "http://www.w3.org/TR/2001/REC-SVG-20010904/DTD/svg10.dtd">
<svg version="1.0" xmlns="http://www.w3.org/2000/svg"
 width="1024.000000pt" height="1024.000000pt" viewBox="0 0 1024.000000 1024.000000"
 preserveAspectRatio="xMidYMid meet">
<metadata>
Created by potrace 1.16, written by Peter Selinger 2001-2019
</metadata>
<g transform="translate(0.000000,1024.000000) scale(0.100000,-0.100000)"
fill="#000000" stroke="none">
<path d="M4950 7995 l0 -115 -110 0 -110 0 0 -90 0 -90 -115 0 -115 0 0 -115
0 -115 -105 0 -105 0 0 -85 0 -85 -120 0 -120 0 0 -100 0 -100 -110 0 -110 0
0 -105 0 -105 -105 0 -105 0 0 -120 0 -119 -112 -3 -113 -3 -3 -107 -3 -108
111 0 110 0 0 -42 c0 -24 2 -234 5 -468 3 -234 5 -696 5 -1027 l0 -603 1445 0
1445 0 2 1068 3 1067 108 3 107 3 0 104 0 105 -110 0 -110 0 0 125 0 125 -95
0 -94 0 -3 103 -3 102 -117 3 -118 3 0 99 0 100 -110 0 -110 0 0 84 0 83 -46
7 c-26 3 -78 6 -115 6 l-69 0 0 110 0 110 -120 0 -119 0 -3 88 -3 87 -102 -3
-102 -4 -3 119 -3 118 -112 3 -113 3 0 -116z m238 -487 l3 -137 112 -3 112 -3
3 -107 3 -108 -33 0 c-18 0 -70 3 -115 7 l-83 6 0 63 0 64 -125 0 -124 0 -3
-62 -3 -63 -108 -5 -107 -5 0 70 c0 39 -3 79 -5 90 -9 35 7 43 89 46 138 4
126 -11 126 150 l0 140 128 -3 127 -3 3 -137z m-450 -640 l2 -238 328 0 327 0
0 237 0 238 108 3 107 3 0 -105 0 -105 128 -3 127 -3 3 -122 3 -122 102 -3
102 -3 3 -97 c2 -74 0 -98 -10 -99 -7 -1 -158 -1 -335 1 l-323 2 0 -396 0
-396 325 0 325 0 2 388 3 387 89 3 c49 2 92 -1 96 -5 4 -4 11 -446 15 -980 l7
-973 -321 0 -321 0 0 85 0 85 220 0 220 0 0 417 0 416 -562 -6 c-310 -4 -760
-7 -1000 -7 l-438 0 0 -410 0 -410 218 -2 217 -3 0 -80 0 -80 -320 0 -320 0
-3 978 -2 977 91 0 92 0 -6 58 c-4 31 -10 81 -13 110 l-7 52 122 0 121 0 0
104 c0 57 3 111 6 120 5 13 26 16 125 16 l119 0 0 98 c0 54 3 102 7 106 4 3
54 5 112 4 l106 -3 3 -237z m452 122 l0 -90 -130 0 -130 0 0 90 0 90 130 0
130 0 0 -90z m660 -925 l0 -165 -37 -2 c-21 -1 -68 -2 -105 -2 l-68 -1 -5 168
-5 167 110 0 110 0 0 -165z m-1342 -1002 l2 -213 -115 0 -115 0 0 208 c0 115
3 212 7 216 4 3 54 5 112 4 l106 -3 3 -212z m1331 203 c8 -9 11 -73 9 -207
l-3 -194 -107 -3 -108 -3 0 204 c0 112 3 207 7 210 3 4 48 7 98 7 67 0 96 -4
104 -14z"/>
<path d="M4058 6050 l2 -390 330 0 330 0 0 390 0 390 -332 0 -333 0 3 -390z
m441 10 l-2 -160 -83 0 c-49 0 -84 4 -84 10 0 6 -7 10 -15 10 -13 0 -15 23
-15 150 l0 150 100 0 101 0 -2 -160z"/>
<path d="M4950 6050 l0 -390 115 0 115 0 0 390 0 390 -115 0 -115 0 0 -390z"/>
<path d="M1122 3358 c1 -337 4 -655 6 -705 l3 -93 95 0 94 0 1 218 c0 119 0
265 -1 325 l-2 107 111 0 111 0 0 -80 0 -80 100 0 100 0 0 85 0 85 90 0 90 0
0 -330 0 -330 105 0 105 0 2 378 c1 207 2 523 2 702 l1 325 -107 3 -108 3 0
-136 0 -135 -95 0 -95 0 0 -90 0 -90 -111 0 -111 0 3 88 3 87 -97 3 -97 3 0
134 0 135 -101 0 -100 0 3 -612z"/>
<path d="M2247 3963 c-4 -3 -7 -321 -7 -705 l0 -698 290 0 290 0 0 328 c0 181
3 498 7 705 l6 377 -290 0 c-159 0 -293 -3 -296 -7z m393 -703 l0 -441 -107 3
-108 3 -3 438 -2 437 110 0 110 0 0 -440z"/>
<path d="M2930 3385 l0 -585 100 0 99 0 3 -122 3 -123 185 0 185 0 3 117 3
117 57 3 57 3 3 588 2 587 -90 0 -90 0 0 -570 0 -570 -50 0 -50 0 0 110 0 110
-110 0 -110 0 0 460 0 460 -100 0 -100 0 0 -585z"/>
<path d="M4255 3958 c-3 -7 -4 -326 -3 -708 l3 -695 343 -3 342 -2 0 135 0
135 -250 0 -250 0 0 110 0 110 130 0 130 0 0 110 0 110 -125 0 -125 0 0 220 0
220 245 0 245 0 0 135 0 135 -340 0 c-263 0 -342 -3 -345 -12z"/>
<path d="M5197 3963 c-2 -5 -6 -323 -8 -708 l-4 -700 105 0 105 0 3 253 2 252
48 -1 c26 -1 77 -1 115 0 l67 1 0 85 0 85 110 0 110 0 2 -337 3 -338 98 -3 97
-3 -2 708 -3 708 -90 0 -90 0 -3 -138 -3 -138 -119 3 -120 3 0 -217 0 -218
-115 0 -115 0 -1 213 c0 116 0 276 1 355 l2 142 -96 0 c-52 0 -97 -3 -99 -7z"/>
<path d="M6152 3263 l3 -708 290 0 290 0 3 708 2 707 -295 0 -295 0 2 -707z
m398 -2 c0 -237 -3 -431 -7 -433 -5 -2 -52 -2 -105 0 l-98 4 0 429 0 429 105
0 105 0 0 -429z"/>
<path d="M6856 3275 c-4 -382 -4 -700 -1 -705 4 -6 110 -10 276 -10 l269 0 0
705 0 705 -95 0 -95 0 0 -575 0 -575 -75 0 -75 0 -2 573 -3 572 -96 3 -96 3
-7 -696z"/>
<path d="M7520 3510 l0 -460 200 0 200 0 0 -110 0 -110 -205 0 -206 0 3 -132
3 -133 282 -3 283 -2 5 22 c3 13 5 172 3 353 l-3 330 -182 3 -183 2 0 215 0
215 185 0 185 0 0 135 0 135 -285 0 -285 0 0 -460z"/>
<path d="M8202 3268 l3 -703 345 0 345 0 0 125 0 125 -252 3 -253 2 0 115 0
115 130 0 131 0 -3 108 -3 107 -127 3 -128 3 0 209 0 210 255 0 255 0 0 140 0
140 -350 0 -350 0 2 -702z"/>
<path d="M3893 3872 l-63 -3 0 -129 0 -128 65 -4 c36 -1 70 -1 75 0 16 6 13
259 -2 263 -7 2 -41 3 -75 1z"/>
<path d="M3893 3532 l-62 -3 -3 -247 c-2 -136 -2 -351 0 -479 l2 -232 92 -3
91 -3 -6 179 c-4 99 -7 315 -7 481 l0 303 -22 3 c-13 2 -51 3 -85 1z"/>
</g>
</svg>
